<?xml version="1.0" encoding="utf-8"?>
<!-- Generator: Adobe Illustrator 26.0.0, SVG Export Plug-In . SVG Version: 6.00 Build 0)  -->
<svg version="1.1" id="Calque_1" xmlns="http://www.w3.org/2000/svg" xmlns:xlink="http://www.w3.org/1999/xlink" x="0px" y="0px"
	 viewBox="0 0 2500 1137" style="enable-background:new 0 0 2500 1137;" xml:space="preserve">
<style type="text/css">
	.st0{fill:#002A3A;}
	.st1{fill:#FFFFFF;}
</style>
<g id="XMLID_00000122702054976747398410000016218105596927416980_">
	<g>
		<path class="st0" d="M2399,101.2c109.2,109.2,100.9,444.1,100.9,467.3c0,23.2,8.3,358.2-100.8,467.3
			c-109.2,109.2-467.4,100.8-467.4,100.8s-358.2,8.3-467.3-100.8c-109.2-109.2-100.8-444.1-100.8-467.3
			c0-23.2-8.3-358.2,100.8-467.3C1573.4-8,1931.7,0.3,1931.7,0.3S2289.9-8,2399,101.2z M2390.3,368.8c0-30.9-25.1-56-56-56h-12.8
			c-54.4,0-103.3,23.2-137.5,60.2v-4.2c0-30.9-25.1-56-56-56c-30.9,0-56,25.1-56,56v403.8c0,0,0,0,0,0c0,30.9,25.1,56,56,56
			c30.9,0,56-25.1,56-56V596c0-79.6,71.2-171.3,149.2-171.3h1.2C2365.2,424.7,2390.3,399.7,2390.3,368.8z M1962.8,773.4v-405
			c0-30.9-24.8-55.6-54.6-55.6c-26.8,0-47.4,19.6-53.6,45.4c-39.2-27.8-85.6-45.4-137.1-45.4c-70.1,0-130.9,29.9-175.2,77.3
			c-44.3,46.4-70.1,110.3-70.1,181.4c0,70.1,25.7,133.9,70.1,181.4c44.3,46.4,105.1,75.2,175.2,75.2c51.5,0,97.9-16.5,137.1-44.3
			c6.2,24.8,26.8,44.3,53.6,44.3C1938.1,828,1962.8,803.3,1962.8,773.4z"/>
		<path class="st1" d="M2334.3,312.8c30.9,0,56,25.1,56,56c0,30.9-25.1,55.9-56,55.9h-1.2c-78,0-149.2,91.7-149.2,171.3v176.5
			c0,30.9-25.1,56-56,56c-30.9,0-56-25.1-56-56c0,0,0,0,0,0V368.8c0-30.9,25-56,56-56c30.9,0,56,25.1,56,56v4.2
			c34.2-37,83.1-60.2,137.5-60.2H2334.3z"/>
		<path class="st1" d="M1962.8,368.5v405c0,29.9-24.7,54.6-54.6,54.6c-26.8,0-47.4-19.6-53.6-44.3c-39.2,27.8-85.6,44.3-137.1,44.3
			c-70.1,0-130.9-28.9-175.2-75.2c-44.3-47.4-70.1-111.3-70.1-181.4c0-71.1,25.8-135,70.1-181.4c44.3-47.4,105.1-77.3,175.2-77.3
			c51.5,0,97.9,17.5,137.1,45.4c6.2-25.8,26.8-45.4,53.6-45.4C1938.1,312.8,1962.8,337.5,1962.8,368.5z M1853.6,571.5
			c0-43.3-15.5-80.4-40.2-106.1c-24.7-27.8-59.8-42.2-95.8-42.2c-37.1,0-72.1,14.4-95.8,42.2c-24.7,25.7-39.2,62.8-39.2,106.1
			c0,42.2,14.4,79.3,39.2,106.1c23.7,25.8,58.8,40.2,95.8,40.2c36.1,0,71.1-14.4,95.8-40.2C1838.1,650.8,1853.6,613.7,1853.6,571.5z
			"/>
		<path class="st0" d="M1813.4,465.3c24.7,25.7,40.2,62.9,40.2,106.1c0,42.2-15.5,79.3-40.2,106.1c-24.7,25.8-59.8,40.2-95.8,40.2
			c-37.1,0-72.1-14.4-95.8-40.2c-24.7-26.8-39.2-63.9-39.2-106.1c0-43.3,14.4-80.4,39.2-106.1c23.7-27.8,58.8-42.2,95.8-42.2
			C1753.6,423.1,1788.7,437.5,1813.4,465.3z"/>
		<path class="st0" d="M1254.1,367.4v389.5c0,138.1-109.2,246.3-246.3,246.3c-37.1,0-75.2-10.3-106.1-25.8
			c-28.9-12.4-39.2-44.3-26.8-73.2c13.4-24.7,48.4-36.1,73.2-22.7c19.6,9.3,39.1,14.4,59.8,14.4c60.8-1,112.3-40.2,128.8-93.8
			c-28.8,16.5-63.9,24.7-97.9,24.7c-118.5,0-215.4-97.9-215.4-216.4V367.4c0-30.9,25.8-54.6,53.6-54.6c31.9,0,54.6,23.7,54.6,54.6
			v243.2c0,59.8,48.4,105.1,107.2,105.1c58.7,0,106.1-45.3,106.1-105.1V367.4c0-30.9,22.7-54.6,53.6-54.6
			C1228.4,312.8,1254.1,336.5,1254.1,367.4z"/>
		<path class="st0" d="M714.2,368.5v405c0,29.9-24.7,54.6-54.6,54.6c-26.8,0-47.4-19.6-53.6-44.3c-39.2,27.8-85.5,44.3-137.1,44.3
			c-70.1,0-130.9-28.9-175.2-75.2c-44.3-47.4-70.1-111.3-70.1-181.4c0-71.1,25.8-135,70.1-181.4c44.3-47.4,105.1-77.3,175.2-77.3
			c51.5,0,97.9,17.5,137.1,45.4c6.2-25.8,26.8-45.4,53.6-45.4C689.4,312.8,714.2,337.5,714.2,368.5z M605,571.5
			c0-43.3-15.5-80.4-40.2-106.1c-24.7-27.8-59.8-42.2-95.8-42.2c-37.1,0-72.1,14.4-95.8,42.2c-24.7,25.7-39.2,62.8-39.2,106.1
			c0,42.2,14.4,79.3,39.2,106.1c23.7,25.8,58.7,40.2,95.8,40.2c36.1,0,71.1-14.4,95.8-40.2C589.5,650.8,605,613.7,605,571.5z"/>
		<path class="st0" d="M114.4,713.7c31.9,0,56.7,25.8,56.7,57.7c0,31.9-24.7,56.7-56.7,56.7C51.5,828.1,0,776.5,0,713.7V163.4
			c0-31.9,25.8-56.7,57.7-56.7c32,0,56.7,24.7,56.7,56.7V713.7z"/>
	</g>
	<g>
	</g>
</g>
</svg>
